<!--?xml version="1.0" standalone="no"?-->
              <svg id="sw-js-blob-svg" viewBox="0 0 100 100" xmlns="http://www.w3.org/2000/svg" version="1.1">
                    <defs> 
                        <linearGradient id="sw-gradient" x1="0" x2="1" y1="1" y2="0">
                            <stop id="stop1" stop-color="rgba(94, 28, 148, 1)" offset="0%"></stop>
                            <stop id="stop2" stop-color="rgba(21, 0, 80, 1)" offset="100%"></stop>
                        </linearGradient>
                    </defs>
                <path fill="url(#sw-gradient)" d="M19.9,-33.7C27,-30.3,34.9,-27.5,38.8,-22C42.7,-16.5,42.5,-8.3,40.4,-1.2C38.3,5.8,34.3,11.7,30.6,17.5C26.9,23.3,23.5,29.1,18.5,31.1C13.4,33,6.7,31.2,1,29.4C-4.6,27.6,-9.3,25.8,-14.3,23.8C-19.2,21.8,-24.6,19.5,-28.7,15.5C-32.7,11.5,-35.6,5.8,-36.8,-0.7C-38,-7.2,-37.6,-14.3,-33.9,-18.9C-30.1,-23.5,-23,-25.6,-16.8,-29.5C-10.6,-33.4,-5.3,-39.3,0.5,-40.2C6.4,-41.1,12.7,-37.1,19.9,-33.7Z" width="100%" height="100%" transform="translate(50 50)" style="transition: all 0.3s ease 0s;" stroke-width="0" stroke="url(#sw-gradient)"></path>
              </svg>
