<svg xmlns="http://www.w3.org/2000/svg" xmlns:xlink="http://www.w3.org/1999/xlink" viewBox="0 0 212 186"><defs><linearGradient id="a" y1="93" x2="212" y2="93" gradientUnits="userSpaceOnUse"><stop offset="0" stop-color="#fb2576"/><stop offset="1" stop-color="#3f0071"/></linearGradient></defs><path d="M200.83,186H167.36c-6.16,0-11.16-3.95-11.16-8.85V159.43c0-4.88,5-8.85,11.16-8.85h22.31V106.29h-78.1v44.29h11.15c6.17,0,11.16,4,11.16,8.85v17.72c0,4.9-5,8.85-11.16,8.85H89.25c-6.16,0-11.15-3.95-11.15-8.85V159.43c0-4.88,5-8.85,11.15-8.85h11.17V106.29H22.31v44.29H44.62c6.17,0,11.16,4,11.16,8.85v17.72c0,4.9-5,8.85-11.16,8.85H11.16C5,186,0,182.05,0,177.15V159.43c0-4.88,5-8.85,11.16-8.85V97.44h89.26V62H67c-6.17,0-11.16-4-11.16-8.86V8.86C55.79,4,60.78,0,67,0h78.1c6.17,0,11.15,4,11.15,8.86V53.14c0,4.89-5,8.86-11.15,8.86H111.58V97.43h89.26v53.14c6.16,0,11.16,4,11.16,8.85v17.72C212,182.05,207,186,200.83,186ZM11.16,159.43v17.72H44.62V159.43ZM145,53.15V8.86H66.94V53.14H145ZM89.25,159.43v17.72h33.47V159.43Zm111.58,0H167.36v17.72h33.47Z" style="fill:url(#a)"/></svg>