<svg xmlns="http://www.w3.org/2000/svg" xmlns:xlink="http://www.w3.org/1999/xlink" viewBox="0 0 168.54 129.4"><defs><linearGradient id="a" y1="65.62" x2="165.85" y2="65.62" gradientUnits="userSpaceOnUse"><stop offset="0" stop-color="#fb2576"/><stop offset="1" stop-color="#3f0071"/></linearGradient><linearGradient id="b" x1="-85.55" y1="126.19" x2="-202.41" y2="8.43" gradientTransform="translate(30.59 214.31) rotate(134.78)" xlink:href="#a"/></defs><path d="M55.81,1.84C28.93,1.84,0,9.94,0,27.75v75.74c0,17.8,28.93,25.91,55.81,25.91s55.81-8.11,55.81-25.91V27.75C111.62,9.94,82.69,1.84,55.81,1.84Zm47.84,101.65c0,9.9-21.42,17.94-47.84,17.94S8,113.39,8,103.49V88.6c8.24,8.48,28.11,12.9,47.84,12.9s39.6-4.42,47.84-12.9Zm0-23.92h0s0,.09,0,.13c0,9.84-21.42,17.81-47.84,17.81S8,89.54,8,79.7c0,0,0-.09,0-.13H8V64.68c8.24,8.49,28.11,12.9,47.84,12.9s39.6-4.41,47.84-12.9Zm0-23.92h0s0,.09,0,.13c0,9.84-21.42,17.81-47.84,17.81S8,65.62,8,55.78c0,0,0-.09,0-.13H8V42c10.45,8,29.6,11.7,47.84,11.7S93.2,49.92,103.65,42Zm-47.84-10C29.39,45.69,8,37.65,8,27.75S29.39,9.81,55.81,9.81s47.84,8,47.84,17.94S82.23,45.69,55.81,45.69ZM87.7,105.48a4,4,0,1,1,4,4A4,4,0,0,1,87.7,105.48Zm0-23.91a4,4,0,1,1,4,4A4,4,0,0,1,87.7,81.57Zm0-23.92a4,4,0,1,1,4,4A4,4,0,0,1,87.7,57.65Z" style="fill:url(#a)"/><path d="M146.42,99.85a3.69,3.69,0,0,1-3.71-3.68c0-2,0-3.7,0-3.7l-3.7,0a7.4,7.4,0,0,1-7.42-7.37l-.21-55.43a7.39,7.39,0,0,1,7.37-7.42h3.69l-.06-14.79L135,7.5a3.7,3.7,0,1,1,0-7.39L164.53,0a3.7,3.7,0,1,1,0,7.39l-7.39,0,.05,14.78h3.7a7.39,7.39,0,0,1,7.42,7.36l.2,55.44a7.37,7.37,0,0,1-7.36,7.41l-3.7,0,0,3.7a3.68,3.68,0,0,1-3.68,3.7H152l.11,29.57-3.71-3.68-.1-25.87Zm14.74-11.14A3.7,3.7,0,0,0,164.85,85l0-11.09-7.39,0v-3.7l7.39,0,0-11.08-7.4,0V55.46l7.39,0v-3.7l-14.78.06,0-3.7L164.71,48,164.66,37,149.88,37v-3.7l14.78-.05v-3.7a3.7,3.7,0,0,0-3.71-3.68L138.75,26a3.69,3.69,0,0,0-3.68,3.72l.21,55.43A3.68,3.68,0,0,0,139,88.79Zm3.66-11.1v3.7l-14.78,0V77.67ZM150,62.88l14.78-.05v3.7l-14.78,0Zm14.7-22.23v3.7l-7.39,0v-3.7Z" style="fill:url(#b)"/></svg>