<svg xmlns="http://www.w3.org/2000/svg" xmlns:xlink="http://www.w3.org/1999/xlink" viewBox="0 0 258.5 197"><defs><linearGradient id="a" y1="121" x2="258.5" y2="121" gradientUnits="userSpaceOnUse"><stop offset="0" stop-color="#fb2576"/><stop offset="1" stop-color="#3f0071"/></linearGradient><linearGradient id="b" x1="0.25" y1="20" x2="258.25" y2="20" xlink:href="#a"/><linearGradient id="c" x1="2.64" y1="121.58" x2="255.92" y2="121.58" xlink:href="#a"/></defs><path d="M4.5,49.5H254a0,0,0,0,1,0,0V181.74a10.76,10.76,0,0,1-10.76,10.76h-228A10.76,10.76,0,0,1,4.5,181.74V49.5A0,0,0,0,1,4.5,49.5Z" style="fill:none;stroke-miterlimit:10;stroke-width:9px;stroke:url(#a)"/><path d="M15.51,4.5H243a10.76,10.76,0,0,1,10.76,10.76V35.5a0,0,0,0,1,0,0H4.75a0,0,0,0,1,0,0V15.26A10.76,10.76,0,0,1,15.51,4.5Z" style="fill:none;stroke-miterlimit:10;stroke-width:9px;stroke:url(#b)"/><path d="M155,131.72h11.23v-6H155v-8.41c0-.49,0-1-.07-1.44,5.3-5,5.76-11.6,5.76-18.49h-6c0,4.8-.31,8.3-1.62,11a17.2,17.2,0,0,0-6.69-7.2c0-.29.06-.58.08-.88v-.14a17.23,17.23,0,0,0-34.46,0v.16c0,.4.07.8.13,1.2a18.5,18.5,0,0,0-6.57,6.95c-1.47-2.7-1.79-6.14-1.79-11.11h-6c0,6.72.46,13.15,5.77,18.15,0,.58-.08,1.17-.08,1.78v8.41H92.25v6h11.23v2.68a25.28,25.28,0,0,0,1.83,9.49c-4.58,4.11-7.52,8.67-7.52,16.11h6a13.63,13.63,0,0,1,4.49-10.68,25.69,25.69,0,0,0,41.94,0A13.63,13.63,0,0,1,154.71,160h6c0-7.43-2.94-12-7.52-16.11A25.28,25.28,0,0,0,155,134.4ZM129.28,89a11.26,11.26,0,0,1,11.07,9.63,40.51,40.51,0,0,0-11.1-1.4,37.06,37.06,0,0,0-11.13,1.58A11.27,11.27,0,0,1,129.28,89Zm17.58,54.33a19.76,19.76,0,0,1-14.61,10.61V111.62h-6v42.32a19.76,19.76,0,0,1-14.61-10.61,19.33,19.33,0,0,1-2.16-8.93V117.31c0-13.06,15.13-14.08,19.77-14.08,9,0,19.77,2.44,19.77,14.08V134.4A19.33,19.33,0,0,1,146.86,143.33Z" style="fill:url(#c)"/></svg>